<svg width="40" height="40" viewBox="0 0 40 40" fill="none" xmlns="http://www.w3.org/2000/svg">
<rect width="40" height="40" rx="8" fill="white" fill-opacity="0.5"/>
<path d="M17 25V23M20 25V21M23 25V19M25 29H15C14.4696 29 13.9609 28.7893 13.5858 28.4142C13.2107 28.0391 13 27.5304 13 27V13C13 12.4696 13.2107 11.9609 13.5858 11.5858C13.9609 11.2107 14.4696 11 15 11H20.586C20.8512 11.0001 21.1055 11.1055 21.293 11.293L26.707 16.707C26.8946 16.8945 26.9999 17.1488 27 17.414V27C27 27.5304 26.7893 28.0391 26.4142 28.4142C26.0391 28.7893 25.5304 29 25 29Z" stroke="#59697E" stroke-width="2" stroke-linecap="round" stroke-linejoin="round"/>
</svg>
