<svg width="40" height="40" viewBox="0 0 40 40" fill="none" xmlns="http://www.w3.org/2000/svg">
<rect width="40" height="40" rx="8" fill="white" fill-opacity="0.5"/>
<path d="M16 15V11M24 15V11M15 19H25M13 29H27C27.5304 29 28.0391 28.7893 28.4142 28.4142C28.7893 28.0391 29 27.5304 29 27V15C29 14.4696 28.7893 13.9609 28.4142 13.5858C28.0391 13.2107 27.5304 13 27 13H13C12.4696 13 11.9609 13.2107 11.5858 13.5858C11.2107 13.9609 11 14.4696 11 15V27C11 27.5304 11.2107 28.0391 11.5858 28.4142C11.9609 28.7893 12.4696 29 13 29Z" stroke="#E59602" stroke-width="2" stroke-linecap="round" stroke-linejoin="round"/>
</svg>
